<?xml version="1.0" standalone="no"?>
<!DOCTYPE svg PUBLIC "-//W3C//DTD SVG 1.1//EN" "http://www.w3.org/Graphics/SVG/1.1/DTD/svg11.dtd" >
<svg xmlns="http://www.w3.org/2000/svg">
<metadata>Generated by IcoMoon</metadata>
<defs>
<font id="icomoon" horiz-adv-x="1024">
<font-face units-per-em="1024" ascent="960" descent="-64" />
<missing-glyph horiz-adv-x="1024" />
<glyph unicode="&#x20;" horiz-adv-x="512" d="" />
<glyph unicode="&#xe900;" glyph-name="clear" d="M572.34 426.667l120.68 120.68-60.34 60.34-120.68-120.68-120.68 120.68-60.34-60.34 120.68-120.68-120.68-120.68 60.34-60.34 120.68 120.68 120.68-120.68 60.34 60.34-120.68 120.68zM509.995 853.334c236.373 0 428.672-191.403 428.672-426.667s-191.403-426.667-426.667-426.667c-235.264 0-426.667 191.403-426.667 426.667s190.507 426.667 424.661 426.667z" />
<glyph unicode="&#xe901;" glyph-name="calendar" d="M170.667 85.334h682.667v554.667h-682.667v-554.667zM170.667 0h-85.333v853.333h85.333v-85.333h128v85.333h426.667v-85.333h128v85.333h85.333v-853.333h-768zM469.333 597.334h85.333v-85.333h-85.333v85.333zM597.333 597.334h85.333v-85.333h-85.333v85.333zM725.333 597.334h85.333v-85.333h-85.333v85.333zM213.333 469.334h85.333v-85.333h-85.333v85.333zM341.333 469.334h85.333v-85.333h-85.333v85.333zM469.333 469.334h85.333v-85.333h-85.333v85.333zM597.333 469.334h85.333v-85.333h-85.333v85.333zM725.333 469.334h85.333v-85.333h-85.333v85.333zM213.333 341.334h85.333v-85.333h-85.333v85.333zM341.333 341.334h85.333v-85.333h-85.333v85.333zM469.333 341.334h85.333v-85.333h-85.333v85.333zM597.333 341.334h85.333v-85.333h-85.333v85.333zM725.333 341.334h85.333v-85.333h-85.333v85.333zM213.333 213.334h85.333v-85.333h-85.333v85.333zM341.333 213.334h85.333v-85.333h-85.333v85.333z" />
<glyph unicode="&#xe902;" glyph-name="arrow-down3" d="M941.632 582.272l-80.576 80.576-349.12-349.12-349.12 349.12-80.576-80.576 429.632-429.632 429.632 429.632z" />
<glyph unicode="&#xe903;" glyph-name="error" d="M509.995 853.334c-234.155 0-424.661-191.403-424.661-426.667s191.403-426.667 426.667-426.667c235.264 0 426.667 191.403 426.667 426.667s-192.299 426.667-428.672 426.667zM554.667 213.334h-85.333v85.333h85.333v-85.333zM554.667 384h-85.333v256h85.333v-256z" />
<glyph unicode="&#xe904;" glyph-name="plus" d="M469.333 810.667v-341.333h-341.333v-85.333h341.333v-341.333h85.333v341.333h341.333v85.333h-341.333v341.333z" />
<glyph unicode="&#xe905;" glyph-name="coin-dollar, money, cash, currency-dollar" d="M480 896c-265.096 0-480-214.904-480-480 0-265.098 214.904-480 480-480 265.098 0 480 214.902 480 480 0 265.096-214.902 480-480 480zM480 32c-212.078 0-384 171.922-384 384s171.922 384 384 384c212.078 0 384-171.922 384-384s-171.922-384-384-384zM512 448v128h128v64h-128v64h-64v-64h-128v-256h128v-128h-128v-64h128v-64h64v64h128.002l-0.002 256h-128zM448 448h-64v128h64v-128zM576.002 256h-64.002v128h64.002v-128z" />
<glyph unicode="&#xe906;" glyph-name="arrow-down4" d="M941.632 582.272l-53.696 53.696-375.936-375.936-375.936 375.936-53.696-53.696 429.632-429.632 429.632 429.632z" />
<glyph unicode="&#xe907;" glyph-name="arrow-down5" d="M270.336 555.392l241.664-241.664 241.664 241.664h-483.328z" />
<glyph unicode="&#xe908;" glyph-name="arrow-left3" d="M646.272 18.368l80.576 80.576-349.12 349.12 349.12 349.12-80.576 80.576-429.632-429.632 429.632-429.632z" />
<glyph unicode="&#xe909;" glyph-name="arrow-left4" d="M646.272 18.368l53.696 53.696-375.936 375.936 375.936 375.936-53.696 53.696-429.632-429.632 429.632-429.632z" />
<glyph unicode="&#xe90a;" glyph-name="arrow-right3" d="M377.728 877.632l-80.576-80.576 349.12-349.12-349.12-349.12 80.576-80.576 429.632 429.632-429.632 429.632z" />
<glyph unicode="&#xe90b;" glyph-name="arrow-right4" d="M377.728 877.632l-53.696-53.696 375.936-375.936-375.936-375.936 53.696-53.696 429.632 429.632-429.632 429.632z" />
<glyph unicode="&#xe90c;" glyph-name="arrow-up3" d="M82.368 313.728l80.576-80.576 349.12 349.12 349.12-349.12 80.576 80.576-429.632 429.632-429.632-429.632z" />
<glyph unicode="&#xe90d;" glyph-name="arrow-up4" d="M82.368 313.728l53.696-53.696 375.936 375.936 375.936-375.936 53.696 53.696-429.632 429.632-429.632-429.632z" />
<glyph unicode="&#xe90e;" glyph-name="arrow-up5" d="M753.664 340.608l-241.664 241.664-241.664-241.664h483.328z" />
<glyph unicode="&#xe90f;" glyph-name="attachment" d="M641.088 603.2l-54.528 54.464-272.576-272.512c-45.184-45.12-45.184-118.336 0-163.52s118.4-45.12 163.52 0l327.104 327.040c75.264 75.264 75.264 197.248 0 272.512s-197.312 75.264-272.512 0l-343.424-343.36c-0.256-0.256-0.512-0.512-0.704-0.704-104.96-104.96-104.96-275.136 0-380.032s275.136-104.96 380.16 0c0.256 0.256 0.448 0.448 0.704 0.704v0l234.432 234.368-54.528 54.464-234.432-234.368c-0.256-0.256-0.448-0.448-0.704-0.704-74.752-74.752-196.352-74.752-271.104 0s-74.752 196.288 0 271.040c0.256 0.256 0.512 0.512 0.768 0.704l-0.064 0.064 343.424 343.36c45.056 45.12 118.464 45.12 163.52 0s45.056-118.464 0-163.52l-327.104-327.040c-15.040-15.040-39.488-15.040-54.528 0s-15.040 39.488 0 54.464l272.576 272.512z" />
<glyph unicode="&#xe910;" glyph-name="bell2" d="M941.632 179.456c-88.96 0-161.088 72.128-161.088 161.088v239.232c0 118.080-92.288 216.64-214.848 239.232v58.624h-107.392v-58.624c-122.56-22.592-214.848-121.152-214.848-239.232v-239.232c0-88.96-72.128-161.088-161.088-161.088v-53.696h360.512c-4.352-9.6-6.784-20.224-6.784-31.488 0-41.92 33.984-75.968 75.968-75.968s75.968 33.984 75.968 75.968c0 11.2-2.432 21.888-6.784 31.488h360.512v53.696z" />
<glyph unicode="&#xe911;" glyph-name="bin2" d="M243.456 18.368h537.088l53.696 590.784h-644.48zM619.392 770.24v107.392h-214.848v-107.392h-268.544v-161.088l53.696 53.696h644.48l53.696-53.696v161.088h-268.544zM565.696 770.24h-107.392v53.696h107.392v-53.696z" />
<glyph unicode="&#xe912;" glyph-name="blocked1" d="M815.808 751.808c-81.152 81.152-189.056 125.824-303.808 125.824s-222.656-44.672-303.808-125.824c-81.152-81.152-125.824-189.056-125.824-303.808s44.672-222.656 125.824-303.808c81.152-81.152 189.056-125.824 303.808-125.824s222.656 44.672 303.808 125.824c81.152 81.152 125.824 189.056 125.824 303.808s-44.672 222.656-125.824 303.808zM834.24 448c0-69.504-22.144-133.888-59.648-186.624l-449.152 449.152c52.672 37.568 117.12 59.648 186.624 59.648 177.664 0 322.24-144.576 322.24-322.24zM189.76 448c0 69.504 22.144 133.888 59.648 186.624l449.152-449.152c-52.672-37.568-117.12-59.648-186.624-59.648-177.664 0-322.24 144.576-322.24 322.24z" />
<glyph unicode="&#xe913;" glyph-name="bookmark2" d="M243.456 877.632v-859.328l268.544 268.544 268.544-268.544v859.328z" />
<glyph unicode="&#xe914;" glyph-name="box-add" d="M780.544 823.936h-537.088l-161.088-161.088v-563.904c0-14.848 12.032-26.88 26.88-26.88h805.568c14.848 0 26.88 12.032 26.88 26.88v563.904l-161.088 161.088zM512 179.456l-268.544 214.848h161.088v161.088h214.848v-161.088h161.088l-268.544-214.848zM212.032 716.544l53.696 53.696h492.544l53.696-53.696h-600z" />
<glyph unicode="&#xe915;" glyph-name="bubble2" d="M512 716.544c-46.080 0-90.624-7.296-132.352-21.632-39.168-13.44-74.112-32.512-103.744-56.576-55.552-45.12-86.144-103.232-86.144-163.456 0-33.792 9.408-66.624 27.904-97.472 19.072-31.808 47.808-60.928 83.072-84.096 25.472-16.768 42.624-43.584 47.168-73.728 1.536-10.048 2.432-20.224 2.816-30.336 6.272 5.184 12.352 10.752 18.368 16.768 20.288 20.288 47.616 31.488 75.968 31.488 4.48 0 9.024-0.256 13.568-0.832 17.6-2.24 35.584-3.392 53.44-3.392 46.080 0 90.624 7.296 132.352 21.632 39.168 13.44 74.112 32.512 103.744 56.576 55.552 45.12 86.144 103.232 86.144 163.456s-30.592 118.336-86.144 163.456c-29.632 24.064-64.576 43.136-103.744 56.576-41.728 14.336-86.208 21.632-132.352 21.632zM512 823.936v0c237.312 0 429.632-156.288 429.632-349.12s-192.384-349.12-429.632-349.12c-22.784 0-45.184 1.472-67.008 4.224-92.288-92.288-202.432-108.864-308.928-111.296v22.592c57.536 28.16 107.392 79.488 107.392 138.176 0 8.192-0.64 16.192-1.792 24.064-97.152 64-159.296 161.728-159.296 271.296 0 192.768 192.384 349.12 429.632 349.12z" />
<glyph unicode="&#xe916;" glyph-name="bubble7" d="M861.12 877.632h-698.176c-44.288 0-80.576-36.224-80.576-80.576v-537.088c0-44.288 36.224-80.576 80.576-80.576h184.128l138.112-161.088 138.112 161.088h237.824c44.288 0 80.576 36.224 80.576 80.576v537.088c0 44.288-36.224 80.576-80.576 80.576zM834.24 286.912h-233.536l-115.584-130.304-115.584 130.304h-179.84v483.328h644.48v-483.328z" />
<glyph unicode="&#xe917;" glyph-name="credit-card, money1, payment, ecommerce" d="M928 832h-832c-52.8 0-96-43.2-96-96v-576c0-52.8 43.2-96 96-96h832c52.8 0 96 43.2 96 96v576c0 52.8-43.2 96-96 96zM96 768h832c17.346 0 32-14.654 32-32v-96h-896v96c0 17.346 14.654 32 32 32zM928 128h-832c-17.346 0-32 14.654-32 32v288h896v-288c0-17.346-14.654-32-32-32zM128 320h64v-128h-64zM256 320h64v-128h-64zM384 320h64v-128h-64z" />
<glyph unicode="&#xe918;" glyph-name="cancel-circle" d="M512 877.632c-237.312 0-429.632-192.384-429.632-429.632s192.384-429.632 429.632-429.632 429.632 192.384 429.632 429.632-192.384 429.632-429.632 429.632zM512 98.88c-192.768 0-349.12 156.288-349.12 349.12s156.288 349.12 349.12 349.12 349.12-156.288 349.12-349.12-156.288-349.12-349.12-349.12zM646.272 662.848l-134.272-134.272-134.272 134.272-80.576-80.576 134.272-134.272-134.272-134.272 80.576-80.576 134.272 134.272 134.272-134.272 80.576 80.576-134.272 134.272 134.272 134.272z" />
<glyph unicode="&#xe919;" glyph-name="cancel-square" d="M834.048 770.24c0.064-0.064 0.128-0.128 0.192-0.192v-644.096c-0.064-0.064-0.128-0.128-0.192-0.192h-644.096c-0.064 0.064-0.128 0.128-0.192 0.192v644.096c0.064 0.064 0.128 0.128 0.192 0.192h644.096zM834.24 877.632h-644.48c-59.072 0-107.392-48.32-107.392-107.392v-644.48c0-59.072 48.32-107.392 107.392-107.392h644.48c59.072 0 107.392 48.32 107.392 107.392v644.48c0 59.072-48.32 107.392-107.392 107.392v0zM646.272 662.848l-134.272-134.272-134.272 134.272-80.576-80.576 134.272-134.272-134.272-134.272 80.576-80.576 134.272 134.272 134.272-134.272 80.576 80.576-134.272 134.272 134.272 134.272z" />
<glyph unicode="&#xe91a;" glyph-name="cancel-square2" d="M834.24 877.632h-644.48c-59.072 0-107.392-48.32-107.392-107.392v-644.48c0-59.072 48.32-107.392 107.392-107.392h644.48c59.072 0 107.392 48.32 107.392 107.392v644.48c0 59.072-48.32 107.392-107.392 107.392zM751.36 284.608l-75.968-75.968-163.392 163.392-163.392-163.392-75.968 75.968 163.392 163.392-163.392 163.456 75.968 75.968 163.392-163.392 163.392 163.392 75.968-75.968-163.392-163.392 163.392-163.392z" />
<glyph unicode="&#xe91b;" glyph-name="checkbox-checked2" d="M834.24 877.632h-644.48c-59.072 0-107.392-48.32-107.392-107.392v-644.48c0-59.072 48.32-107.392 107.392-107.392h644.48c59.072 0 107.392 48.32 107.392 107.392v644.48c0 59.072-48.32 107.392-107.392 107.392zM458.304 210.944l-199.104 199.104 75.968 75.968 123.136-123.136 257.408 257.408 75.968-75.968-333.376-333.376z" />
<glyph unicode="&#xe91c;" glyph-name="checkbox-unchecked2" d="M834.24 877.632h-644.48c-59.072 0-107.392-48.32-107.392-107.392v-644.48c0-59.072 48.32-107.392 107.392-107.392h644.48c59.072 0 107.392 48.32 107.392 107.392v644.48c0 59.072-48.32 107.392-107.392 107.392zM834.24 125.76h-644.48v644.48h644.48v-644.48z" />
<glyph unicode="&#xe91d;" glyph-name="checkmark-circle" d="M512 877.632c-237.312 0-429.632-192.384-429.632-429.632s192.384-429.632 429.632-429.632 429.632 192.384 429.632 429.632-192.384 429.632-429.632 429.632zM431.424 231.488l-151.040 179.584 55.36 55.36 95.68-94.016 276.928 241.664 38.592-38.592-315.52-344.064z" />
<glyph unicode="&#xe91e;" glyph-name="circle-small" d="M350.912 448c0 88.96 72.128 161.088 161.088 161.088s161.088-72.128 161.088-161.088c0-88.96-72.128-161.088-161.088-161.088s-161.088 72.128-161.088 161.088z" />
<glyph unicode="&#xe91f;" glyph-name="circle" d="M512 877.632c-237.312 0-429.632-192.384-429.632-429.632s192.384-429.632 429.632-429.632 429.632 192.384 429.632 429.632-192.384 429.632-429.632 429.632zM512 72.064c-207.616 0-375.936 168.32-375.936 375.936s168.32 375.936 375.936 375.936 375.936-168.32 375.936-375.936-168.32-375.936-375.936-375.936z" />
<glyph unicode="&#xe920;" glyph-name="clock3" d="M726.848 501.696v-107.392h-268.544v322.24h107.392v-214.848zM512 877.632c-237.312 0-429.632-192.384-429.632-429.632s192.384-429.632 429.632-429.632 429.632 192.384 429.632 429.632-192.384 429.632-429.632 429.632zM512 125.76c-177.984 0-322.24 144.256-322.24 322.24s144.256 322.24 322.24 322.24c177.984 0 322.24-144.256 322.24-322.24s-144.256-322.24-322.24-322.24z" />
<glyph unicode="&#xe921;" glyph-name="cog6" d="M941.632 501.696l-202.304 40.448 114.432 171.648-75.968 75.968-171.648-114.432-40.448 202.304h-107.392l-40.448-202.304-171.648 114.432-75.968-75.968 114.432-171.648-202.304-40.448v-107.392l202.304-40.448-114.432-171.648 75.968-75.968 171.648 114.432 40.448-202.304h107.392l40.448 202.304 171.648-114.432 75.968 75.968-114.432 171.648 202.304 40.448v107.392zM512 286.912c-88.96 0-161.088 72.128-161.088 161.088s72.128 161.088 161.088 161.088 161.088-72.128 161.088-161.088-72.128-161.088-161.088-161.088z" />
<glyph unicode="&#xe922;" glyph-name="copy" d="M807.36 770.24h-53.696v-53.696h26.88v-429.632h-214.848v-214.848h-322.24v644.48h26.88v53.696h-53.696c-14.784 0-26.88-12.096-26.88-26.88v-698.176c0-14.784 12.096-26.88 26.88-26.88h422.912l194.688 194.688v530.368c0 14.784-12.096 26.88-26.88 26.88zM619.392 72.064v161.088h161.088l-161.088-161.088zM726.848 770.24h-107.392v53.696c0 29.568-24.192 53.696-53.696 53.696h-107.392c-29.568 0-53.696-24.192-53.696-53.696v-53.696h-107.392v-107.392h429.632v107.392zM565.696 770.24h-107.392v53.632c0 0.064 0.064 0.064 0.128 0.128h107.2c0.064 0 0.064-0.064 0.128-0.128v-53.632z" />
<glyph unicode="&#xe923;" glyph-name="credit-card1" d="M861.12 770.24h-698.176c-44.288 0-80.576-36.224-80.576-80.576v-483.328c0-44.288 36.224-80.576 80.576-80.576h698.176c44.288 0 80.576 36.224 80.576 80.576v483.328c0 44.288-36.224 80.576-80.576 80.576zM162.88 716.544h698.176c14.528 0 26.88-12.288 26.88-26.88v-80.576h-751.872v80.576c0 14.528 12.288 26.88 26.88 26.88zM861.12 179.456h-698.176c-14.528 0-26.88 12.288-26.88 26.88v241.664h751.872v-241.664c0-14.528-12.288-26.88-26.88-26.88zM189.76 340.608h53.696v-107.392h-53.696zM297.152 340.608h53.696v-107.392h-53.696zM404.608 340.608h53.696v-107.392h-53.696z" />
<glyph unicode="&#xe924;" glyph-name="cross2" d="M831.936 691.968l-75.968 75.968-243.968-243.968-243.968 243.968-75.968-75.968 243.968-243.968-243.968-243.968 75.968-75.968 243.968 243.968 243.968-243.968 75.968 75.968-243.968 243.968z" />
<glyph unicode="&#xe925;" glyph-name="cross3" d="M737.92 297.984l-75.968-75.968-150.016 150.016-150.016-150.016-75.968 75.968 150.016 150.016-150.016 150.016 75.968 75.968 150.016-150.016 150.016 150.016 75.968-75.968-150.016-150.016 150.016-150.016z" />
<glyph unicode="&#xe926;" glyph-name="download" d="M512 394.304l214.848 214.848h-161.088v214.848h-107.392v-214.848h-161.088zM707.264 482.176l-60.224-60.224 218.24-81.408-353.344-131.776-353.344 131.776 218.24 81.408-60.224 60.224-234.368-87.872v-214.848l429.632-161.088 429.632 161.088v214.848z" />
<glyph unicode="&#xe927;" glyph-name="download4" d="M834.24 286.912v-107.392h-644.48v107.392h-107.392v-214.848h859.328v214.848zM726.848 555.392h-161.088v268.544h-107.392v-268.544h-161.088l214.848-322.24z" />
<glyph unicode="&#xe928;" glyph-name="download5" d="M189.76 233.152h644.48v-161.088h-644.48v161.088zM619.392 555.392v268.544h-214.848v-268.544h-187.968l295.36-295.36 295.36 295.36z" />
<glyph unicode="&#xe929;" glyph-name="envelop3" d="M887.936 770.24h-751.872c-29.568 0-53.696-24.192-53.696-53.696v-537.088c0-29.568 24.192-53.696 53.696-53.696h751.872c29.568 0 53.696 24.192 53.696 53.696v537.088c0 29.568-24.192 53.696-53.696 53.696zM834.24 662.848v-38.592l-322.24-189.888-322.24 189.888v38.592h644.48zM189.76 233.152v297.536l322.24-189.888 322.24 189.888v-297.536h-644.48z" />
<glyph unicode="&#xe92a;" glyph-name="file-empty" d="M852.544 685.44c-18.624 25.408-44.608 55.104-73.152 83.648s-58.24 54.528-83.648 73.152c-43.264 31.744-64.256 35.392-76.288 35.392h-416.192c-36.992 0-67.136-30.144-67.136-67.136v-725.056c0-36.992 30.144-67.136 67.136-67.136h617.6c36.992 0 67.136 30.144 67.136 67.136v523.648c0 12.032-3.648 33.024-35.392 76.288zM741.376 731.136c25.792-25.792 46.016-49.024 60.928-68.288h-129.216v129.216c19.264-14.912 42.496-35.136 68.288-60.928zM834.24 85.504c0-7.296-6.144-13.44-13.44-13.44h-617.6c-7.296 0-13.44 6.144-13.44 13.44v725.056c0 7.296 6.144 13.44 13.44 13.44 0 0 416.192 0 416.192 0v-187.968c0-14.848 12.032-26.88 26.88-26.88h187.968v-523.648z" />
<glyph unicode="&#xe92b;" glyph-name="file-excel" d="M705.856 555.392h-113.536l-80.32-118.336-80.32 118.336h-113.536l136.064-203.456-153.536-226.176h211.328v76.864h-42.112l42.112 62.912 93.504-139.776h117.824l-153.536 226.176 136.064 203.456zM852.544 685.44c-18.624 25.408-44.608 55.104-73.152 83.648s-58.24 54.528-83.648 73.152c-43.264 31.744-64.256 35.392-76.288 35.392h-416.192c-36.992 0-67.136-30.144-67.136-67.136v-725.056c0-36.992 30.144-67.136 67.136-67.136h617.6c36.992 0 67.136 30.144 67.136 67.136v523.648c0 12.032-3.648 33.024-35.392 76.288v0zM741.376 731.136c25.792-25.792 46.016-49.024 60.928-68.288h-129.216v129.216c19.264-14.912 42.496-35.136 68.288-60.928v0zM834.24 85.504c0-7.296-6.144-13.44-13.44-13.44h-617.6c-7.296 0-13.44 6.144-13.44 13.44v725.056c0 7.296 6.144 13.44 13.44 13.44 0 0 416.192 0 416.192 0v-187.968c0-14.848 12.032-26.88 26.88-26.88h187.968v-523.648z" />
<glyph unicode="&#xe92c;" glyph-name="file-locked" d="M852.544 685.44c-18.624 25.408-44.608 55.104-73.152 83.648s-58.24 54.528-83.648 73.152c-43.264 31.744-64.256 35.392-76.288 35.392h-416.192c-36.992 0-67.136-30.144-67.136-67.136v-725.056c0-36.992 30.080-67.136 67.136-67.136h617.6c36.992 0 67.136 30.144 67.136 67.136v523.648c0 12.032-3.648 33.024-35.392 76.288v0 0zM741.376 731.136c25.792-25.792 46.016-49.024 60.928-68.288h-129.216v129.216c19.264-14.912 42.496-35.136 68.288-60.928v0 0zM834.24 85.504c0-7.296-6.144-13.44-13.44-13.44h-617.6c-7.296 0-13.44 6.144-13.44 13.44v725.056c0 7.296 6.144 13.44 13.44 13.44 0 0 416.192 0 416.192 0v-187.968c0-14.848 12.032-26.88 26.88-26.88h187.968v-523.648zM646.272 394.304h-26.88v134.272c0 14.848-12.032 26.88-26.88 26.88h-161.088c-14.848 0-26.88-12.032-26.88-26.88v-134.272h-26.88c-14.784 0-26.88-12.096-26.88-26.88v-214.848c0-14.784 12.096-26.88 26.88-26.88h268.544c14.784 0 26.88 12.096 26.88 26.88v214.848c0 14.784-12.096 26.88-26.88 26.88zM458.304 501.696h107.392v-107.392h-107.392v107.392z" />
<glyph unicode="&#xe92d;" glyph-name="file-minus" d="M852.544 685.44c-18.624 25.408-44.608 55.104-73.152 83.648s-58.24 54.528-83.648 73.152c-43.264 31.744-64.256 35.392-76.288 35.392h-416.192c-36.992 0-67.136-30.144-67.136-67.136v-725.056c0-36.992 30.144-67.136 67.136-67.136h335.68c14.848 0 26.88 12.032 26.88 26.88s-12.032 26.88-26.88 26.88h-335.68c-7.296 0-13.44 6.144-13.44 13.44v725.056c0 7.296 6.144 13.44 13.44 13.44 0 0 416.192 0 416.192 0v-187.968c0-14.848 12.032-26.88 26.88-26.88h187.968v-187.968c0-14.848 12.032-26.88 26.88-26.88s26.88 12.032 26.88 26.88v187.968c0 12.032-3.648 33.024-35.392 76.288zM673.088 662.848v129.216c19.264-14.912 42.496-35.136 68.288-60.928s46.016-49.024 60.928-68.288h-129.216zM619.392 233.152h322.24v-107.392h-322.24v107.392z" />
<glyph unicode="&#xe92e;" glyph-name="file-openoffice" d="M661.568 481.856c-50.88 24.064-115.776 28.864-163.52-5.056 58.048 5.568 121.664-4.032 163.712-47.936 40.256 46.208 104.128 54.912 161.92 50.112-48.256 32-111.808 27.712-162.176 2.88v0zM640.96 369.344c-57.408 1.344-112.832-19.456-160.384-50.432-89.92 38.272-203.712 31.168-280.256-32.704 22.080 0.768 43.648 6.272 65.472 9.088 79.872 7.936 164.992-11.84 225.344-67.008 24.96 36.544 60.096 65.664 100.416 83.84 52.928 25.6 112.576 28.288 170.176 28.992-35.008 24.064-79.424 28.48-120.768 28.288zM852.544 685.44c-18.624 25.408-44.608 55.104-73.152 83.648s-58.24 54.528-83.648 73.152c-43.264 31.744-64.256 35.392-76.288 35.392h-416.192c-36.992 0-67.136-30.144-67.136-67.136v-725.056c0-36.992 30.144-67.136 67.136-67.136h617.6c36.992 0 67.136 30.144 67.136 67.136v523.648c0 12.032-3.648 33.024-35.392 76.288v0zM741.376 731.136c25.792-25.792 46.016-49.024 60.928-68.288h-129.216v129.216c19.264-14.912 42.496-35.136 68.288-60.928v0zM834.24 85.504c0-7.296-6.144-13.44-13.44-13.44h-617.6c-7.296 0-13.44 6.144-13.44 13.44v725.056c0 7.296 6.144 13.44 13.44 13.44 0 0 416.192 0 416.192 0v-187.968c0-14.848 12.032-26.88 26.88-26.88h187.968v-523.648z" />
<glyph unicode="&#xe92f;" glyph-name="file-pdf" d="M788.928 382.976c-11.456 11.264-36.864 17.28-75.52 17.792-26.176 0.32-57.664-1.984-90.752-6.656-14.848 8.576-30.144 17.856-42.112 29.056-32.256 30.144-59.2 72-76.032 117.952 1.088 4.288 2.048 8.064 2.88 11.904 0 0 18.176 103.296 13.376 138.176-0.64 4.8-1.088 6.208-2.368 9.92l-1.6 4.032c-4.928 11.392-14.656 23.488-29.824 22.848l-9.152 0.32c-16.96 0-30.784-8.64-34.368-21.632-11.008-40.64 0.32-101.44 20.992-180.224l-5.248-12.8c-14.784-35.968-33.28-72.192-49.6-104.192l-2.112-4.16c-17.152-33.6-32.768-62.144-46.848-86.272l-14.592-7.68c-1.088-0.576-26.048-13.76-31.936-17.344-49.728-29.696-82.688-63.424-88.128-90.112-1.728-8.512-0.448-19.456 8.384-24.512l14.080-7.104c6.144-3.072 12.544-4.608 19.2-4.608 35.392 0 76.544 44.096 133.184 142.976 65.408 21.312 139.84 38.976 205.12 48.768 49.728-28.032 110.912-47.424 149.504-47.424 6.848 0 12.736 0.64 17.536 1.92 7.424 1.984 13.632 6.208 17.472 11.904 7.488 11.264 9.024 26.816 6.976 42.688-0.576 4.736-4.352 10.56-8.448 14.528zM259.968 194.56c6.464 17.664 32 52.544 69.824 83.52 2.368 1.92 8.256 7.424 13.568 12.48-39.552-63.040-65.984-88.192-83.392-96.064zM483.84 710.080c11.392 0 17.856-28.672 18.368-55.616s-5.76-45.76-13.568-59.776c-6.464 20.672-9.6 53.312-9.6 74.624 0 0-0.448 40.768 4.736 40.768v0zM417.024 342.72c7.936 14.208 16.192 29.184 24.64 45.056 20.544 38.848 33.536 69.248 43.2 94.272 19.2-35.008 43.2-64.704 71.296-88.512 3.52-2.944 7.232-5.952 11.136-8.96-57.216-11.328-106.688-25.088-150.272-41.856v0zM777.92 345.92c-3.456-2.176-13.44-3.456-19.904-3.456-20.736 0-46.4 9.472-82.368 24.896 13.824 1.024 26.496 1.536 37.824 1.536 20.8 0 26.944 0.064 47.296-5.12s20.608-15.744 17.088-17.92v0zM852.544 685.44c-18.624 25.408-44.608 55.104-73.152 83.648s-58.24 54.528-83.648 73.152c-43.264 31.744-64.256 35.392-76.288 35.392h-416.192c-36.992 0-67.136-30.144-67.136-67.136v-725.056c0-36.992 30.144-67.136 67.136-67.136h617.6c36.992 0 67.136 30.144 67.136 67.136v523.648c0 12.032-3.648 33.024-35.392 76.288v0zM741.376 731.136c25.792-25.792 46.016-49.024 60.928-68.288h-129.216v129.216c19.264-14.912 42.496-35.136 68.288-60.928v0zM834.24 85.504c0-7.296-6.144-13.44-13.44-13.44h-617.6c-7.296 0-13.44 6.144-13.44 13.44v725.056c0 7.296 6.144 13.44 13.44 13.44 0 0 416.192 0 416.192 0v-187.968c0-14.848 12.032-26.88 26.88-26.88h187.968v-523.648z" />
<glyph unicode="&#xe930;" glyph-name="file-plus" d="M852.544 685.44c-18.624 25.408-44.608 55.104-73.152 83.648s-58.24 54.528-83.648 73.152c-43.264 31.744-64.256 35.392-76.288 35.392h-416.192c-36.992 0-67.136-30.144-67.136-67.136v-725.056c0-36.992 30.144-67.136 67.136-67.136h335.68c14.848 0 26.88 12.032 26.88 26.88s-12.032 26.88-26.88 26.88h-335.68c-7.296 0-13.44 6.144-13.44 13.44v725.056c0 7.296 6.144 13.44 13.44 13.44 0 0 416.192 0 416.192 0v-187.968c0-14.848 12.032-26.88 26.88-26.88h187.968v-187.968c0-14.848 12.032-26.88 26.88-26.88s26.88 12.032 26.88 26.88v187.968c0 12.032-3.648 33.024-35.392 76.288zM673.088 662.848v129.216c19.264-14.912 42.496-35.136 68.288-60.928s46.016-49.024 60.928-68.288h-129.216zM941.632 233.152h-107.392v107.392h-107.392v-107.392h-107.392v-107.392h107.392v-107.392h107.392v107.392h107.392z" />
<glyph unicode="&#xe931;" glyph-name="file-presentation" d="M243.456 448h161.088v-53.696h-161.088v53.696zM243.456 340.608h161.088v-53.696h-161.088v53.696zM243.456 233.152h161.088v-53.696h-161.088v53.696zM565.696 286.912h158.4c-12.416-61.312-66.624-107.392-131.584-107.392-74.176 0-134.272 60.096-134.272 134.272 0 64.96 46.144 119.104 107.392 131.584v-158.4zM646.272 501.696c74.176 0 134.272-60.096 134.272-134.272 0-9.216-0.96-18.176-2.688-26.88h-158.4v158.4c8.704 1.792 17.664 2.688 26.88 2.688zM852.544 685.44c-18.624 25.408-44.608 55.104-73.152 83.648s-58.24 54.528-83.648 73.152c-43.264 31.744-64.256 35.392-76.288 35.392h-416.192c-36.992 0-67.136-30.144-67.136-67.136v-725.056c0-36.992 30.144-67.136 67.136-67.136h617.6c36.992 0 67.136 30.144 67.136 67.136v523.648c0 12.032-3.648 33.024-35.392 76.288v0zM741.376 731.136c25.792-25.792 46.016-49.024 60.928-68.288h-129.216v129.216c19.264-14.912 42.496-35.136 68.288-60.928v0zM834.24 85.504c0-7.296-6.144-13.44-13.44-13.44h-617.6c-7.296 0-13.44 6.144-13.44 13.44v725.056c0 7.296 6.144 13.44 13.44 13.44 0 0 416.192 0 416.192 0v-187.968c0-14.848 12.032-26.88 26.88-26.88h187.968v-523.648z" />
<glyph unicode="&#xe932;" glyph-name="file-spreadsheet" d="M852.544 685.44c-18.624 25.408-44.608 55.104-73.152 83.648s-58.24 54.528-83.648 73.152c-43.264 31.744-64.256 35.392-76.288 35.392h-416.192c-36.992 0-67.136-30.144-67.136-67.136v-725.056c0-36.992 30.144-67.136 67.136-67.136h617.6c36.992 0 67.136 30.144 67.136 67.136v523.648c0 12.032-3.648 33.024-35.392 76.288v0 0zM741.376 731.136c25.792-25.792 46.016-49.024 60.928-68.288h-129.216v129.216c19.264-14.912 42.496-35.136 68.288-60.928v0 0zM834.24 85.504c0-7.296-6.144-13.44-13.44-13.44h-617.6c-7.296 0-13.44 6.144-13.44 13.44v725.056c0 7.296 6.144 13.44 13.44 13.44 0 0 416.192 0 416.192 0v-187.968c0-14.848 12.032-26.88 26.88-26.88h187.968v-523.648zM243.456 501.696v-375.936h537.088v375.936h-537.088zM404.608 179.456h-107.392v107.392h107.392v-107.392zM404.608 340.608h-107.392v107.392h107.392v-107.392zM565.696 179.456h-107.392v107.392h107.392v-107.392zM565.696 340.608h-107.392v107.392h107.392v-107.392zM726.848 179.456h-107.392v107.392h107.392v-107.392zM726.848 340.608h-107.392v107.392h107.392v-107.392z" />
<glyph unicode="&#xe933;" glyph-name="file-stats" d="M852.544 685.44c-18.624 25.408-44.608 55.104-73.152 83.648s-58.24 54.528-83.648 73.152c-43.264 31.744-64.256 35.392-76.288 35.392h-416.192c-36.992 0-67.136-30.144-67.136-67.136v-725.056c0-36.992 30.144-67.136 67.136-67.136h617.6c36.992 0 67.136 30.144 67.136 67.136v523.648c0 12.032-3.648 33.024-35.392 76.288v0 0zM741.376 731.136c25.792-25.792 46.016-49.024 60.928-68.288h-129.216v129.216c19.264-14.912 42.496-35.136 68.288-60.928v0 0zM834.24 85.504c0-7.296-6.144-13.44-13.44-13.44h-617.6c-7.296 0-13.44 6.144-13.44 13.44v725.056c0 7.296 6.144 13.44 13.44 13.44 0 0 416.192 0 416.192 0v-187.968c0-14.848 12.032-26.88 26.88-26.88h187.968v-523.648zM297.152 609.088h107.392v-483.328h-107.392v483.328zM458.304 394.304h107.392v-268.544h-107.392v268.544zM619.392 286.912h107.392v-161.088h-107.392v161.088z" />
<glyph unicode="&#xe934;" glyph-name="file-text" d="M807.36 877.632h-644.48c-44.288 0-80.576-36.224-80.576-80.576v-698.176c0-44.288 36.224-80.576 80.576-80.576h644.48c44.288 0 80.576 36.224 80.576 80.576v698.176c0 44.288-36.224 80.576-80.576 80.576zM780.544 125.76h-590.784v644.48h590.784v-644.48zM297.152 501.696h375.936v-53.696h-375.936zM297.152 394.304h375.936v-53.696h-375.936zM297.152 286.912h375.936v-53.696h-375.936zM297.152 609.088h375.936v-53.696h-375.936z" />
<glyph unicode="&#xe935;" glyph-name="file-text2" d="M852.544 685.44c-18.624 25.408-44.608 55.104-73.152 83.648s-58.24 54.528-83.648 73.152c-43.264 31.744-64.256 35.392-76.288 35.392h-416.192c-36.992 0-67.136-30.144-67.136-67.136v-725.056c0-36.992 30.144-67.136 67.136-67.136h617.6c36.992 0 67.136 30.144 67.136 67.136v523.648c0 12.032-3.648 33.024-35.392 76.288zM741.376 731.136c25.792-25.792 46.016-49.024 60.928-68.288h-129.216v129.216c19.264-14.912 42.496-35.136 68.288-60.928zM834.24 85.504c0-7.296-6.144-13.44-13.44-13.44h-617.6c-7.296 0-13.44 6.144-13.44 13.44v725.056c0 7.296 6.144 13.44 13.44 13.44 0 0 416.192 0 416.192 0v-187.968c0-14.848 12.032-26.88 26.88-26.88h187.968v-523.648zM699.968 179.456h-375.936c-14.848 0-26.88 12.032-26.88 26.88s12.032 26.88 26.88 26.88h375.936c14.848 0 26.88-12.032 26.88-26.88s-12.032-26.88-26.88-26.88zM699.968 286.912h-375.936c-14.848 0-26.88 12.032-26.88 26.88s12.032 26.88 26.88 26.88h375.936c14.848 0 26.88-12.032 26.88-26.88s-12.032-26.88-26.88-26.88zM699.968 394.304h-375.936c-14.848 0-26.88 12.032-26.88 26.88s12.032 26.88 26.88 26.88h375.936c14.848 0 26.88-12.032 26.88-26.88s-12.032-26.88-26.88-26.88z" />
<glyph unicode="&#xe936;" glyph-name="file-word" d="M619.2 478.272h37.12l-42.816-189.824-55.68 266.88h-89.408l-64.704-266.88-48.512 266.88h-93.504l94.912-429.568h91.328l64 254.016 57.28-254.016h84.224l108.8 429.568h-143.040v-77.056zM852.544 685.44c-18.624 25.408-44.608 55.104-73.152 83.648s-58.24 54.528-83.648 73.152c-43.264 31.744-64.256 35.392-76.288 35.392h-416.192c-36.992 0-67.136-30.144-67.136-67.136v-725.056c0-36.992 30.144-67.136 67.136-67.136h617.6c36.992 0 67.136 30.144 67.136 67.136v523.648c0 12.032-3.648 33.024-35.392 76.288v0zM741.376 731.136c25.792-25.792 46.016-49.024 60.928-68.288h-129.216v129.216c19.264-14.912 42.496-35.136 68.288-60.928v0zM834.24 85.504c0-7.296-6.144-13.44-13.44-13.44h-617.6c-7.296 0-13.44 6.144-13.44 13.44v725.056c0 7.296 6.144 13.44 13.44 13.44 0 0 416.192 0 416.192 0v-187.968c0-14.848 12.032-26.88 26.88-26.88h187.968v-523.648z" />
<glyph unicode="&#xe937;" glyph-name="files-empty" d="M852.544 577.984c-18.624 25.408-44.608 55.104-73.152 83.648s-58.24 54.528-83.648 73.152c-43.264 31.744-64.256 35.392-76.288 35.392h-308.8c-36.992 0-67.136-30.144-67.136-67.136v-617.6c0-36.992 30.144-67.136 67.136-67.136h510.208c36.992 0 67.136 30.144 67.136 67.136v416.192c0 12.032-3.648 33.024-35.392 76.288zM741.376 623.68c25.792-25.792 46.016-49.024 60.928-68.288h-129.216v129.216c19.264-14.912 42.496-35.136 68.288-60.928v0zM834.24 85.504c0-7.296-6.144-13.44-13.44-13.44h-510.208c-7.296 0-13.44 6.144-13.44 13.44v617.6c0 7.296 6.144 13.44 13.44 13.44 0 0 308.8 0 308.8 0v-187.968c0-14.848 12.032-26.88 26.88-26.88h187.968v-416.192zM588.288 842.24c-43.264 31.744-64.256 35.392-76.288 35.392h-308.8c-36.992 0-67.136-30.144-67.136-67.136v-617.6c0-32.448 23.104-59.52 53.696-65.792v683.392c0 7.296 6.144 13.44 13.44 13.44h408.576c-8.064 6.656-15.936 12.8-23.488 18.304z" />
<glyph unicode="&#xe938;" glyph-name="filter3" d="M82.368 770.24l322.24-322.24v-322.24l214.848 53.696v268.544l322.24 322.24z" />
<glyph unicode="&#xe939;" glyph-name="floppy-disk2" d="M834.24 877.632h-751.872v-859.328h859.328v751.872l-107.392 107.392zM512 770.24h107.392v-214.848h-107.392v214.848zM834.24 125.76h-644.48v644.48h53.696v-268.544h483.328v268.544h62.912l44.48-44.48v-600z" />
<glyph unicode="&#xe93a;" glyph-name="folder-download3" d="M565.696 662.848l-107.392 107.392h-375.936v-698.176h859.328v590.784h-375.936zM887.936 125.76h-751.872v590.784h299.968l107.392-107.392h344.512v-483.328zM565.696 340.608v161.088h-107.392v-161.088h-161.088l214.848-214.848 214.848 214.848z" />
<glyph unicode="&#xe93b;" glyph-name="folder-minus4" d="M565.696 662.848l-107.392 107.392h-375.936v-698.176h859.328v590.784h-375.936zM887.936 125.76h-751.872v590.784h299.968l107.392-107.392h344.512v-483.328zM350.912 394.304h322.24v-107.392h-322.24z" />
<glyph unicode="&#xe93c;" glyph-name="folder-open3" d="M908.48 555.392h-74.24v174.528c0 22.272-18.048 40.256-40.256 40.256h-362.496l-26.88 53.696h-174.528c-22.272 0-40.256-18.048-40.256-40.256v-228.224h-74.24c-22.144 0-36.736-17.792-32.384-39.488l98.752-350.656c4.352-21.696 26.048-39.488 48.192-39.488h563.904c22.144 0 43.84 17.792 48.192 39.488l98.752 350.656c4.352 21.696-10.24 39.488-32.384 39.488zM243.456 770.24h127.936l26.88-53.696h382.272v-161.088h-537.088v214.848zM790.272 179.456h-556.544l-92.608 322.24h741.76l-92.608-322.24z" />
<glyph unicode="&#xe93d;" glyph-name="folder-plus4" d="M565.696 662.848l-107.392 107.392h-375.936v-698.176h859.328v590.784h-375.936zM887.936 125.76h-751.872v590.784h299.968l107.392-107.392h344.512v-483.328zM565.696 501.696h-107.392v-107.392h-107.392v-107.392h107.392v-107.392h107.392v107.392h107.392v107.392h-107.392z" />
<glyph unicode="&#xe93e;" glyph-name="folder-upload3" d="M565.696 662.848l-107.392 107.392h-375.936v-698.176h859.328v590.784h-375.936zM887.936 125.76h-322.24v161.088h161.088l-214.848 214.848-214.848-214.848h161.088v-161.088h-322.24v590.784h299.968l107.392-107.392h344.512v-483.328z" />
<glyph unicode="&#xe93f;" glyph-name="folder2" d="M458.304 770.24l107.392-107.392h375.936v-590.784h-859.328v698.176z" />
<glyph unicode="&#xe940;" glyph-name="folder3" d="M565.696 662.848l-107.392 107.392h-375.936v-698.176h859.328v590.784h-375.936zM543.488 609.088h344.512v-6.72h-751.872v13.44h400.704l6.72-6.72zM136.064 125.76v6.72h751.872v-6.72h-751.872zM136.064 145.92v13.44h751.872v-13.44h-751.872zM136.064 172.736v13.44h751.872v-13.44h-751.872zM136.064 199.616v13.44h751.872v-13.44h-751.872zM136.064 226.432v13.44h751.872v-13.44h-751.872zM136.064 253.312v13.44h751.872v-13.44h-751.872zM136.064 280.192v13.44h751.872v-13.44h-751.872zM136.064 307.008v13.44h751.872v-13.44h-751.872zM136.064 333.888v13.44h751.872v-13.44h-751.872zM136.064 360.704v13.44h751.872v-13.44h-751.872zM136.064 387.584v13.44h751.872v-13.44h-751.872zM136.064 414.464v13.44h751.872v-13.44h-751.872zM136.064 441.28v13.44h751.872v-13.44h-751.872zM136.064 468.16v13.44h751.872v-13.44h-751.872zM136.064 494.976v13.44h751.872v-13.44h-751.872zM136.064 521.856v13.44h751.872v-13.44h-751.872zM136.064 548.672v13.44h751.872v-13.44h-751.872zM136.064 575.552v13.44h751.872v-13.44h-751.872zM436.032 716.544l6.72-6.72h-306.688v6.72h299.968zM456.192 696.384l13.44-13.44h-333.568v13.44h320.128zM483.072 669.568l13.44-13.44h-360.384v13.44h347.008zM509.888 642.688l13.44-13.44h-387.264v13.44h373.824z" />
<glyph unicode="&#xe941;" glyph-name="folder4" d="M436.032 716.544l107.392-107.392h344.512v-483.328h-751.872v590.784h299.968zM458.304 770.24h-375.936v-698.176h859.328v590.784h-375.936l-107.392 107.392z" />
<glyph unicode="&#xe942;" glyph-name="folder6" d="M908.48 662.848h-74.24v67.136c0 22.272-18.048 40.256-40.256 40.256h-362.496l-26.88 53.696h-174.528c-22.272 0-40.256-18.048-40.256-40.256v-120.832h-74.24c-22.144 0-36.736-17.792-32.384-39.488l98.752-458.048c4.352-21.696 26.048-39.488 48.192-39.488h563.904c22.144 0 43.84 17.792 48.192 39.488l98.752 458.048c4.352 21.696-10.24 39.488-32.384 39.488zM243.456 770.24h127.936l26.88-53.696h382.272v-53.696h-537.088v107.392zM790.272 179.456h-556.544l-92.608 429.632h741.76l-92.608-429.632z" />
<glyph unicode="&#xe943;" glyph-name="home" d="M941.632 382.144l-429.632 333.504-429.632-333.504v136l429.632 333.504 429.632-333.504zM834.24 394.304v-322.24h-644.48v322.24l322.24 241.664z" />
<glyph unicode="&#xe944;" glyph-name="info" d="M458.304 622.528c0 22.144 18.112 40.256 40.256 40.256h26.88c22.144 0 40.256-18.112 40.256-40.256v-26.88c0-22.144-18.112-40.256-40.256-40.256h-26.88c-22.144 0-40.256 18.112-40.256 40.256v26.88zM619.392 233.152h-214.848v53.696h53.696v161.088h-53.696v53.696h161.088v-214.848h53.696zM512 877.632c-237.312 0-429.632-192.384-429.632-429.632s192.384-429.632 429.632-429.632 429.632 192.384 429.632 429.632-192.384 429.632-429.632 429.632zM512 98.88c-192.768 0-349.12 156.288-349.12 349.12s156.288 349.12 349.12 349.12 349.12-156.288 349.12-349.12-156.288-349.12-349.12-349.12z" />
<glyph unicode="&#xe945;" glyph-name="info2" d="M512 877.632c-237.312 0-429.632-192.384-429.632-429.632s192.384-429.632 429.632-429.632 429.632 192.384 429.632 429.632-192.384 429.632-429.632 429.632zM458.304 676.224c0 22.144 18.112 40.256 40.256 40.256h26.88c22.144 0 40.256-18.112 40.256-40.256v-26.88c0-22.144-18.112-40.256-40.256-40.256h-26.88c-22.144 0-40.256 18.112-40.256 40.256v26.88zM619.392 179.456h-214.848v53.696h53.696v214.848h-53.696v53.696h161.088v-268.544h53.696v-53.696z" />
<glyph unicode="&#xe946;" glyph-name="lamp7" d="M350.912 340.608c-0.192-88.96 72.128-107.392 161.088-107.392s160.896 18.432 161.088 107.392 107.2 120.256 107.392 268.544-120.256 268.544-268.544 268.544c-148.288 0-268.352-120.256-268.544-268.544s107.648-179.52 107.392-268.544zM512 179.456c-66.304 0-121.344 14.72-132.288 81.408-1.28-9.024-1.984-18.24-1.984-27.712 0-88.96 60.096-107.392 134.272-107.392s134.272 18.432 134.272 107.392c0 9.472-0.704 18.688-1.984 27.712-10.944-66.688-65.984-81.408-132.288-81.408zM512 72.064c-53.056 0-97.088 14.72-105.856 81.408-1.024-9.024-1.6-18.24-1.6-27.712 0-88.96 48.064-107.392 107.392-107.392s107.392 18.432 107.392 107.392c0 9.472-0.576 18.688-1.6 27.712-8.768-66.688-52.8-81.408-105.856-81.408z" />
<glyph unicode="&#xe947;" glyph-name="lamp8" d="M512 823.936c57.472 0 111.552-22.4 152.128-63.104 40.512-40.576 62.784-94.4 62.656-151.68-0.064-66.048-26.048-101.376-53.504-138.816-25.216-34.368-53.824-73.344-53.952-129.664-0.064-27.392-9.472-34.752-19.072-39.936-17.088-9.216-46.784-13.888-88.32-13.888-63.808 0-88.384 11.136-97.664 20.48-2.432 2.432-9.792 9.792-9.728 33.088 0.128 56.576-28.608 95.616-54.016 130.048-27.52 37.376-53.504 72.64-53.44 138.496 0.064 57.408 22.464 111.424 63.040 152s94.464 62.912 151.808 62.912zM512 877.632c-148.288 0-268.352-120.256-268.544-268.544s107.648-179.52 107.392-268.544 72.128-107.392 161.088-107.392c88.96 0 160.896 18.432 161.088 107.392s107.2 120.256 107.392 268.544-120.256 268.544-268.544 268.544v0zM512 179.456c-66.304 0-121.344 14.72-132.288 81.408-1.28-9.024-1.984-18.24-1.984-27.712 0-88.96 60.096-107.392 134.272-107.392s134.272 18.432 134.272 107.392c0 9.472-0.704 18.688-1.984 27.712-10.944-66.688-65.984-81.408-132.288-81.408zM512 72.064c-53.056 0-97.088 14.72-105.856 81.408-1.024-9.024-1.6-18.24-1.6-27.712 0-88.96 48.064-107.392 107.392-107.392s107.392 18.432 107.392 107.392c0 9.472-0.576 18.688-1.6 27.712-8.768-66.688-52.8-81.408-105.856-81.408z" />
<glyph unicode="&#xe948;" glyph-name="libreoffice" d="M531.008 858.688c-10.432 10.432-31.040 19.008-45.824 19.008h-322.24c-14.784 0-26.88-12.096-26.88-26.88v-805.568c0-14.784 12.096-26.88 26.88-26.88h644.48c14.784 0 26.88 12.096 26.88 26.88v483.328c0 14.784-8.512 35.392-19.008 45.824l-284.288 284.288zM780.544 72.064h-590.784v751.872h294.656c2.432-0.384 7.040-2.304 9.088-3.776l283.264-283.264c1.472-2.048 3.328-6.656 3.776-9.088v-455.808zM807.36 877.632h-161.088c-14.784 0-18.304-8.512-7.872-19.008l176.832-176.832c10.432-10.432 19.008-6.912 19.008 7.872v161.088c0 14.784-12.096 26.88-26.88 26.88z" />
<glyph unicode="&#xe949;" glyph-name="link" d="M451.776 344.128c-11.2 0-22.336 4.288-30.848 12.8-79.808 79.808-79.808 209.728 0 289.6l161.088 161.088c38.656 38.656 90.112 59.968 144.768 59.968s106.112-21.312 144.768-59.968c79.808-79.808 79.808-209.728 0-289.6l-73.664-73.664c-17.024-17.024-44.672-17.024-61.696 0s-17.024 44.672 0 61.696l73.664 73.664c45.824 45.824 45.824 120.32 0 166.144-22.208 22.208-51.712 34.432-83.072 34.432s-60.864-12.224-83.072-34.432l-161.088-161.088c-45.824-45.824-45.824-120.32 0-166.144 17.024-17.024 17.024-44.672 0-61.696-8.512-8.512-19.712-12.8-30.848-12.8zM297.152 28.416c-54.72 0-106.112 21.312-144.768 59.968-79.808 79.808-79.808 209.728 0 289.6l73.664 73.664c17.024 17.024 44.672 17.024 61.696 0s17.024-44.672 0-61.696l-73.664-73.664c-45.824-45.824-45.824-120.32 0-166.144 22.208-22.208 51.712-34.432 83.072-34.432s60.864 12.224 83.072 34.432l161.088 161.088c45.824 45.824 45.824 120.32 0 166.144-17.024 17.024-17.024 44.672 0 61.696s44.672 17.024 61.696 0c79.808-79.808 79.808-209.728 0-289.536l-161.152-161.088c-38.656-38.656-90.112-59.968-144.768-59.968z" />
<glyph unicode="&#xe94a;" glyph-name="list" d="M82.368 877.632h214.848v-214.848h-214.848zM404.608 823.936h537.088v-107.392h-537.088zM82.368 555.392h214.848v-214.848h-214.848zM404.608 501.696h537.088v-107.392h-537.088zM82.368 233.152h214.848v-214.848h-214.848zM404.608 179.456h537.088v-107.392h-537.088z" />
<glyph unicode="&#xe94b;" glyph-name="menu-open" d="M726.848 501.696l-214.848 214.848-214.848-214.848zM297.152 340.608l214.848-214.848 214.848 214.848z" />
<glyph unicode="&#xe94c;" glyph-name="menu" d="M780.544 501.696c59.328 0 107.392-48.064 107.392-107.392s-48.064-107.392-107.392-107.392c-59.328 0-107.392 48.064-107.392 107.392s48.064 107.392 107.392 107.392zM512 501.696c59.328 0 107.392-48.064 107.392-107.392s-48.064-107.392-107.392-107.392c-59.328 0-107.392 48.064-107.392 107.392s48.064 107.392 107.392 107.392zM243.456 501.696c59.328 0 107.392-48.064 107.392-107.392s-48.064-107.392-107.392-107.392c-59.328 0-107.392 48.064-107.392 107.392s48.064 107.392 107.392 107.392z" />
<glyph unicode="&#xe94d;" glyph-name="minus-circle" d="M512 877.632c-237.312 0-429.632-192.384-429.632-429.632s192.384-429.632 429.632-429.632 429.632 192.384 429.632 429.632-192.384 429.632-429.632 429.632zM512 125.76c-177.984 0-322.24 144.256-322.24 322.24s144.256 322.24 322.24 322.24c177.984 0 322.24-144.256 322.24-322.24s-144.256-322.24-322.24-322.24zM297.152 501.696h429.632v-107.392h-429.632z" />
<glyph unicode="&#xe94e;" glyph-name="more2" d="M404.608 716.544c0 59.328 48.064 107.392 107.392 107.392s107.392-48.064 107.392-107.392c0-59.328-48.064-107.392-107.392-107.392s-107.392 48.064-107.392 107.392zM404.608 448c0 59.328 48.064 107.392 107.392 107.392s107.392-48.064 107.392-107.392c0-59.328-48.064-107.392-107.392-107.392s-107.392 48.064-107.392 107.392zM404.608 179.456c0 59.328 48.064 107.392 107.392 107.392s107.392-48.064 107.392-107.392c0-59.328-48.064-107.392-107.392-107.392s-107.392 48.064-107.392 107.392z" />
<glyph unicode="&#xe94f;" glyph-name="notification" d="M512 797.12c-93.248 0-180.928-36.288-246.848-102.272s-102.272-153.6-102.272-246.848c0-93.248 36.288-180.928 102.272-246.848s153.6-102.272 246.848-102.272c93.248 0 180.928 36.288 246.848 102.272s102.272 153.6 102.272 246.848c0 93.248-36.288 180.928-102.272 246.848s-153.6 102.272-246.848 102.272zM512 877.632v0c237.312 0 429.632-192.384 429.632-429.632s-192.384-429.632-429.632-429.632c-237.312 0-429.632 192.384-429.632 429.632s192.384 429.632 429.632 429.632zM458.304 286.912h107.392v-107.392h-107.392zM458.304 716.544h107.392v-322.24h-107.392z" />
<glyph unicode="&#xe950;" glyph-name="notification2" d="M512 877.632c-237.312 0-429.632-192.384-429.632-429.632s192.384-429.632 429.632-429.632 429.632 192.384 429.632 429.632-192.384 429.632-429.632 429.632zM565.696 179.456h-107.392v107.392h107.392v-107.392zM565.696 394.304h-107.392v322.24h107.392v-322.24z" />
<glyph unicode="&#xe951;" glyph-name="pencil3" d="M721.984 877.632c-8.576 0-16.896-0.96-24.96-2.944l-480.384-480.384-134.272-375.936 375.68 134.272 480.64 480.384c24.832 99.328-111.168 244.672-216.704 244.672zM432.768 231.808l-137.088 137.088 402.816 402.816 137.216-137.216-402.944-402.688z" />
<glyph unicode="&#xe952;" glyph-name="pencil4" d="M697.024 874.688l-480.384-480.384h80.576v-53.696h53.696v-53.696h53.696v-53.696h53.696v-80.256l480.384 480.128c26.88 107.392-134.272 268.544-241.664 241.664zM404.608 179.456h-53.696v53.696h-53.696v53.696h-53.696v53.696h-46.016l-115.072-322.24 322.24 115.2z" />
<glyph unicode="&#xe953;" glyph-name="phone" d="M893.056 729.28c-23.872 20.16-56.576 37.696-97.152 52.224-76.672 27.392-177.472 42.432-283.904 42.432 0 0 0 0 0 0-106.432 0-207.232-15.104-283.904-42.432-40.576-14.528-73.28-32.064-97.152-52.224-40.192-33.92-48.576-69.44-48.576-93.312v-53.696c0-14.272 5.632-27.904 15.744-37.952l26.88-26.88c10.24-10.24 24-15.744 38.016-15.744 6.72 0 13.44 1.28 19.904 3.84l134.272 53.696c20.416 8.128 33.728 27.904 33.728 49.856v93.696c49.152 8.96 104.256 13.696 161.088 13.696 0 0 0 0 0 0 56.896 0 112-4.736 161.088-13.696v-93.696c0-21.952 13.376-41.728 33.792-49.856l134.272-53.696c6.464-2.56 13.248-3.84 19.904-3.84 14.016 0 27.712 5.44 38.016 15.744l26.88 26.88c10.048 10.048 15.744 23.744 15.744 37.952v53.696c0 23.872-8.448 59.392-48.576 93.312zM884.288 209.536c-0.832 2.88-20.48 71.168-54.016 140.608-48.512 100.544-130.24 151.488-237.696 151.488h-161.088c-107.392 0-189.184-51.008-237.696-151.488-33.536-69.44-53.184-137.728-54.016-140.608-10.048-35.264-4.544-70.4 15.104-96.512s51.968-41.024 88.64-41.024h537.088c36.672 0 68.992 14.976 88.64 41.024s25.152 61.248 15.104 96.512zM512 179.456c-59.328 0-107.392 48.064-107.392 107.392s48.064 107.392 107.392 107.392c59.328 0 107.392-48.064 107.392-107.392s-48.064-107.392-107.392-107.392z" />
<glyph unicode="&#xe954;" glyph-name="plus-circle" d="M512 877.632c-237.312 0-429.632-192.384-429.632-429.632s192.384-429.632 429.632-429.632 429.632 192.384 429.632 429.632-192.384 429.632-429.632 429.632zM512 125.76c-177.984 0-322.24 144.256-322.24 322.24s144.256 322.24 322.24 322.24c177.984 0 322.24-144.256 322.24-322.24s-144.256-322.24-322.24-322.24zM726.848 394.304h-161.088v-161.088h-107.392v161.088h-161.088v107.392h161.088v161.088h107.392v-161.088h161.088z" />
<glyph unicode="&#xe955;" glyph-name="plus3" d="M887.936 501.696h-322.24v322.24h-107.392v-322.24h-322.24v-107.392h322.24v-322.24h107.392v322.24h322.24z" />
<glyph unicode="&#xe956;" glyph-name="price-tag2" d="M901.376 877.632h-322.24c-22.144 0-53.12-12.8-68.736-28.48l-399.552-399.552c-15.68-15.68-15.68-41.28 0-56.96l345.856-345.856c15.68-15.68 41.28-15.68 56.96 0l399.552 399.552c15.68 15.68 28.48 46.592 28.48 68.736v322.24c0 22.144-18.112 40.256-40.256 40.256zM699.968 555.392c-44.48 0-80.576 36.096-80.576 80.576s36.096 80.576 80.576 80.576 80.576-36.096 80.576-80.576-36.096-80.576-80.576-80.576z" />
<glyph unicode="&#xe957;" glyph-name="printer3" d="M297.152 823.936h429.632v-107.392h-429.632v107.392zM887.936 662.848h-751.872c-29.568 0-53.696-24.192-53.696-53.696v-268.544c0-29.568 24.192-53.696 53.696-53.696h161.088v-214.848h429.632v214.848h161.088c29.568 0 53.696 24.192 53.696 53.696v268.544c0 29.568-24.192 53.696-53.696 53.696zM189.76 501.696c-29.632 0-53.696 24.064-53.696 53.696s24.064 53.696 53.696 53.696 53.696-24.064 53.696-53.696-24.064-53.696-53.696-53.696zM673.088 125.76h-322.24v268.544h322.24v-268.544z" />
<glyph unicode="&#xe958;" glyph-name="profile" d="M807.36 877.632h-644.48c-44.288 0-80.576-36.224-80.576-80.576v-698.176c0-44.288 36.224-80.576 80.576-80.576h644.48c44.288 0 80.576 36.224 80.576 80.576v698.176c0 44.288-36.224 80.576-80.576 80.576zM780.544 125.76h-590.784v644.48h590.784v-644.48zM297.152 394.304h375.936v-53.696h-375.936zM297.152 286.912h375.936v-53.696h-375.936zM350.912 635.968c0 44.48 36.096 80.576 80.576 80.576s80.576-36.096 80.576-80.576c0-44.48-36.096-80.576-80.576-80.576s-80.576 36.096-80.576 80.576zM485.12 555.392h-107.392c-44.288 0-80.576-24.192-80.576-53.696v-53.696h268.544v53.696c0 29.568-36.224 53.696-80.576 53.696z" />
<glyph unicode="&#xe959;" glyph-name="question4" d="M512 877.632c-237.312 0-429.632-192.384-429.632-429.632s192.384-429.632 429.632-429.632 429.632 192.384 429.632 429.632-192.384 429.632-429.632 429.632zM512 179.456c-29.632 0-53.696 24.064-53.696 53.696s24.064 53.696 53.696 53.696 53.696-24.064 53.696-53.696-24.064-53.696-53.696-53.696zM600.576 454.592c-32.832-20.608-48.256-32-48.256-47.040v-26.88c0-22.272-18.048-40.256-40.256-40.256s-40.256 18.048-40.256 40.256v26.88c0 28.224 10.88 53.568 32.32 75.392 15.808 16.128 35.072 28.16 53.632 39.872 38.208 24 54.976 36.928 54.976 59.456 0 24.576-14.144 40.96-26.048 50.368-19.072 15.168-45.568 23.488-74.624 23.488-44.096 0-83.712-29.44-96.448-71.616-6.4-21.312-28.864-33.344-50.176-26.944s-33.344 28.864-26.944 50.176c11.008 36.544 33.92 69.312 64.448 92.416 31.616 23.872 69.376 36.48 109.12 36.48 47.168 0 91.456-14.528 124.736-40.96 36.48-28.928 56.512-69.248 56.512-113.472 0-69.44-53.568-103.104-92.672-127.68z" />
<glyph unicode="&#xe95a;" glyph-name="radio-checked" d="M512 877.632c-237.312 0-429.632-192.384-429.632-429.632s192.384-429.632 429.632-429.632 429.632 192.384 429.632 429.632-192.384 429.632-429.632 429.632zM512 125.76c-177.984 0-322.24 144.256-322.24 322.24s144.256 322.24 322.24 322.24c177.984 0 322.24-144.256 322.24-322.24s-144.256-322.24-322.24-322.24zM350.912 448c0 88.96 72.128 161.088 161.088 161.088s161.088-72.128 161.088-161.088c0-88.96-72.128-161.088-161.088-161.088s-161.088 72.128-161.088 161.088z" />
<glyph unicode="&#xe95b;" glyph-name="radio-checked2" d="M512 877.632c-237.312 0-429.632-192.384-429.632-429.632s192.384-429.632 429.632-429.632 429.632 192.384 429.632 429.632-192.384 429.632-429.632 429.632zM512 340.608c-59.328 0-107.392 48.064-107.392 107.392s48.064 107.392 107.392 107.392 107.392-48.064 107.392-107.392c0-59.328-48.064-107.392-107.392-107.392z" />
<glyph unicode="&#xe95c;" glyph-name="reset" d="M303.936 394.304c-4.416-17.152-6.784-35.136-6.784-53.696 0-118.656 96.192-214.848 214.848-214.848s214.848 96.192 214.848 214.848-96.192 214.848-214.848 214.848v-161.088l-268.544 214.848 268.544 214.848v-161.088c177.984 0 322.24-144.256 322.24-322.24s-144.256-322.24-322.24-322.24-322.24 144.256-322.24 322.24c0 18.304 1.536 36.224 4.48 53.696h109.696z" />
<glyph unicode="&#xe95d;" glyph-name="rotate-cw3" horiz-adv-x="1152" d="M458.304 823.936c207.616 0 375.936-168.32 375.936-375.936h187.968l-241.664-241.664-241.664 241.664h187.968c0 148.288-120.256 268.544-268.544 268.544s-268.544-120.256-268.544-268.544c0-148.288 120.256-268.544 268.544-268.544v-107.392c-207.616 0-375.936 168.32-375.936 375.936s168.32 375.936 375.936 375.936z" />
<glyph unicode="&#xe95e;" glyph-name="search" d="M941.632 152.64l-252.16 252.16c23.808 44.928 37.312 96.192 37.312 150.656 0 177.984-144.256 322.24-322.24 322.24s-322.24-144.256-322.24-322.24 144.256-322.24 322.24-322.24c54.4 0 105.664 13.504 150.656 37.312l252.16-252.16 134.272 134.272zM189.76 555.392c0 118.656 96.192 214.848 214.848 214.848s214.848-96.192 214.848-214.848-96.192-214.848-214.848-214.848-214.848 96.192-214.848 214.848z" />
<glyph unicode="&#xe95f;" glyph-name="sort" d="M404.608 662.848v-590.784h-107.392v590.784h-134.272l187.968 187.968 187.968-187.968zM619.392 233.152v590.784h107.392v-590.784h134.272l-187.968-187.968-187.968 187.968z" />
<glyph unicode="&#xe960;" glyph-name="spinner11" d="M941.632 555.392h-322.24l120.448 120.448c-60.864 60.864-141.76 94.4-227.84 94.4s-166.976-33.536-227.84-94.4c-60.864-60.864-94.4-141.76-94.4-227.84s33.536-166.976 94.4-227.84c60.864-60.864 141.76-94.4 227.84-94.4s166.976 33.536 227.84 94.4c5.056 5.056 9.984 10.304 14.656 15.68l80.832-70.72c-78.72-89.92-194.432-146.752-323.328-146.752-237.312 0-429.632 192.384-429.632 429.632s192.384 429.632 429.632 429.632c118.656 0 226.048-48.128 303.808-125.888l125.888 125.888v-322.24z" />
<glyph unicode="&#xe961;" glyph-name="toggle-off" d="M646.272 555.392c50.24 0 97.408-19.584 132.928-55.040s55.040-82.688 55.040-132.928-19.584-97.408-55.040-132.928c-35.52-35.52-82.688-55.040-132.928-55.040h-268.544c-50.24 0-97.408 19.584-132.928 55.040s-55.040 82.688-55.040 132.928 19.584 97.408 55.040 132.928c35.52 35.52 82.688 55.040 132.928 55.040h268.544zM646.272 662.848h-268.544c-163.136 0-295.36-132.224-295.36-295.36s132.224-295.36 295.36-295.36h268.544c163.136 0 295.36 132.224 295.36 295.36s-132.224 295.36-295.36 295.36v0zM512 367.424c0-74.176-60.096-134.272-134.272-134.272s-134.272 60.096-134.272 134.272c0 74.176 60.096 134.272 134.272 134.272s134.272-60.096 134.272-134.272z" />
<glyph unicode="&#xe962;" glyph-name="toggle-on" d="M646.272 662.848h-268.544c-163.136 0-295.36-132.224-295.36-295.36s132.224-295.36 295.36-295.36h268.544c163.136 0 295.36 132.224 295.36 295.36s-132.224 295.36-295.36 295.36zM646.272 233.152c-74.176 0-134.272 60.096-134.272 134.272s60.096 134.272 134.272 134.272 134.272-60.096 134.272-134.272c0-74.176-60.096-134.272-134.272-134.272z" />
<glyph unicode="&#xe963;" glyph-name="upload" d="M458.304 394.304h107.392v214.848h161.088l-214.848 214.848-214.848-214.848h161.088zM619.392 515.136v-82.816l245.952-91.712-353.344-131.776-353.344 131.776 245.952 91.712v82.816l-322.24-120.832v-214.848l429.632-161.088 429.632 161.088v214.848z" />
<glyph unicode="&#xe964;" glyph-name="upload4" d="M834.24 286.912v-107.392h-644.48v107.392h-107.392v-214.848h859.328v214.848zM297.152 501.696h161.088v-268.544h107.392v268.544h161.088l-214.848 322.24z" />
<glyph unicode="&#xe965;" glyph-name="upload5" d="M189.76 233.152h644.48v-161.088h-644.48v161.088zM404.608 555.392v-268.544h214.848v268.544h187.968l-295.36 295.36-295.36-295.36z" />
<glyph unicode="&#xe966;" glyph-name="user3" d="M297.152 609.088c0 118.656 96.192 214.848 214.848 214.848s214.848-96.192 214.848-214.848c0-118.656-96.192-214.848-214.848-214.848s-214.848 96.192-214.848 214.848zM726.848 340.608h-429.632c-118.656 0-214.848-96.192-214.848-214.848v-53.696h859.328v53.696c0 118.656-96.192 214.848-214.848 214.848z" />
<glyph unicode="&#xe967;" glyph-name="warning" d="M512 799.808l360.064-717.696h-720.192l360.064 717.696zM512 877.632c-18.496 0-37.056-12.48-51.072-37.44l-366.784-731.008c-28.096-49.984-4.224-90.816 53.12-90.816h729.472c57.344 0 81.216 40.896 53.12 90.816v0l-366.784 731.008c-14.080 24.96-32.576 37.44-51.072 37.44v0zM565.696 179.456c0-29.632-24.064-53.696-53.696-53.696s-53.696 24.064-53.696 53.696c0 29.632 24.064 53.696 53.696 53.696s53.696-24.064 53.696-53.696zM512 286.912c-29.632 0-53.696 24.064-53.696 53.696v161.088c0 29.632 24.064 53.696 53.696 53.696s53.696-24.064 53.696-53.696v-161.088c0-29.632-24.064-53.696-53.696-53.696z" />
<glyph unicode="&#xe968;" glyph-name="warning2" d="M929.856 109.184v0l-366.784 731.008c-14.080 24.96-32.576 37.44-51.072 37.44s-37.056-12.48-51.072-37.44l-366.784-731.008c-28.096-49.984-4.224-90.816 53.12-90.816h729.472c57.344 0 81.216 40.896 53.12 90.816zM512 125.76c-29.632 0-53.696 24.064-53.696 53.696s24.064 53.696 53.696 53.696c29.632 0 53.696-24.064 53.696-53.696s-24.064-53.696-53.696-53.696zM565.696 340.608c0-29.632-24.064-53.696-53.696-53.696s-53.696 24.064-53.696 53.696v161.088c0 29.632 24.064 53.696 53.696 53.696s53.696-24.064 53.696-53.696v-161.088z" />
<glyph unicode="&#xe969;" glyph-name="wrench" d="M923.968 191.296l-386.496 331.264c17.984 33.792 28.224 72.384 28.224 113.408 0 133.504-108.224 241.664-241.664 241.664-24.384 0-48-3.648-70.208-10.368l139.648-139.648c20.864-20.864 20.864-55.040 0-75.968l-85.184-85.184c-20.864-20.864-55.040-20.864-75.968 0l-139.648 139.648c-6.72-22.208-10.368-45.76-10.368-70.208 0-133.504 108.224-241.664 241.664-241.664 40.96 0 79.552 10.24 113.408 28.224l331.264-386.496c19.2-22.4 52.032-23.68 72.896-2.816l85.184 85.184c20.864 20.864 19.648 53.696-2.816 72.896z" />
<glyph unicode="&#xe96a;" glyph-name="airplane, travel, flight, plane, transport, fly, vacation" d="M832 512h-134.4l-281.6 384h-160l204.8-384h-236.8l-128 128h-96l128-224-128-224h96l128 128h236.8l-204.8-384h160l281.6 384h134.4c105.6 0 192 43.2 192 96s-86.4 96-192 96z" />
<glyph unicode="&#xe96b;" glyph-name="eye, views, vision, visit" d="M512 141c-148.19 0-280.064 72.604-345.484 115.882-43.842 29.004-84.188 62.202-113.606 93.48-35.602 37.854-52.91 69.79-52.91 97.636 0 27.848 17.308 59.784 52.912 97.638 29.418 31.278 69.764 64.476 113.606 93.48 65.418 43.278 197.294 115.884 345.482 115.884s280.062-72.606 345.482-115.884c43.84-29.004 84.186-62.202 113.606-93.48 35.602-37.852 52.91-69.788 52.912-97.63-0.002-27.854-17.31-59.79-52.912-97.644-29.418-31.278-69.764-64.474-113.606-93.478-65.42-43.28-197.292-115.884-345.482-115.884zM97.634 448c11.022-20.286 56.51-69.934 134.050-118.94 54.4-34.38 163.154-92.058 280.316-92.058 117.164 0 225.918 57.678 280.316 92.060 77.54 49.006 123.028 98.652 134.048 118.938-11.024 20.286-56.51 69.932-134.050 118.94-54.398 34.382-163.152 92.060-280.314 92.060s-225.916-57.678-280.314-92.060c-77.54-49.006-123.030-98.654-134.052-118.94zM384 448c0 70.692 57.308 128 128 128s128-57.308 128-128c0-70.692-57.308-128-128-128s-128 57.308-128 128z" />
<glyph unicode="&#xe96c;" glyph-name="eye-blocked, views1, vision1, visit1, banned, blocked, forbidden, private" d="M185.918 244.464c-6.982 4.328-13.472 8.496-19.4 12.42-43.842 29.004-84.188 62.2-113.606 93.48-35.604 37.852-52.912 69.788-52.912 97.634 0 27.848 17.308 59.784 52.908 97.636 29.418 31.278 69.764 64.476 113.606 93.48 65.42 43.278 197.296 115.884 345.484 115.884 12.624 0 25.118-0.564 37.476-1.556l-68.406-95.768c-105.086-8.742-199.808-59.404-249.384-90.736-77.54-49.008-123.030-98.656-134.052-118.942 11.022-20.286 56.51-69.934 134.050-118.94 3.198-2.020 6.6-4.128 10.164-6.294l-55.928-78.298zM971.088 545.636c-29.42 31.278-69.766 64.476-113.606 93.48-32.65 21.6-81.876 50.484-141.404 74.014l114.844 160.784-61.844 44.174-640-896 61.844-44.176 140.176 196.248c54.382-19.256 116.074-33.16 180.902-33.16 148.19 0 280.062 72.604 345.482 115.882 43.842 29.004 84.188 62.202 113.606 93.478 35.602 37.854 52.91 69.79 52.912 97.644-0.002 27.844-17.31 59.78-52.912 97.632zM792.316 329.060c-54.398-34.382-163.152-92.060-280.316-92.060-42.664 0-84.204 7.654-122.414 19.042l58.074 81.302c18.906-11.020 40.88-17.346 64.34-17.346 70.694 0 128 57.306 128 128 0 38.642-17.144 73.252-44.22 96.714l62.516 87.52c56.292-19.626 103.636-46.092 134.020-65.294 77.542-49.008 123.028-98.654 134.050-118.94-11.022-20.286-56.51-69.932-134.050-118.938z" />
<glyph unicode="&#xe96d;" glyph-name="star-full, rate, star, favorite, bookmark" d="M1024 562.95l-353.78 51.408-158.22 320.582-158.216-320.582-353.784-51.408 256-249.538-60.432-352.352 316.432 166.358 316.432-166.358-60.434 352.352 256.002 249.538z" />
<glyph unicode="&#xe96e;" glyph-name="star-empty, rate1, star1, favorite1, bookmark1" d="M1024 562.95l-353.78 51.408-158.22 320.582-158.216-320.582-353.784-51.408 256-249.538-60.432-352.352 316.432 166.358 316.432-166.358-60.434 352.352 256.002 249.538zM512 206.502l-223.462-117.48 42.676 248.83-180.786 176.222 249.84 36.304 111.732 226.396 111.736-226.396 249.836-36.304-180.788-176.222 42.678-248.83-223.462 117.48z" />
<glyph unicode="&#xe96f;" glyph-name="briefcase" d="M960 704h-256v64c0 35.2-28.8 64-64 64h-256c-35.204 0-64-28.8-64-64v-64h-256c-35.2 0-64-28.8-64-64v-576c0-35.202 28.796-64 64-64h896c35.2 0 64 28.798 64 64v576c0 35.2-28.8 64-64 64zM384 767.884c0.034 0.040 0.074 0.082 0.114 0.116h255.772c0.042-0.034 0.082-0.076 0.118-0.116v-63.884h-256.004v63.884zM960 448h-128v-96c0-17.602-14.4-32-32-32h-64c-17.604 0-32 14.398-32 32v96h-384v-96c0-17.602-14.4-32-32-32h-64c-17.602 0-32 14.398-32 32v96h-128v64h896v-64z" />
<glyph unicode="&#xe991;" glyph-name="arrow-down-right3" d="M205.504 678.528l445.376-445.376h-192.576c-29.632 0-53.696-24.064-53.696-53.696s24.064-53.696 53.696-53.696h322.24c21.696 0 41.28 13.056 49.6 33.152 2.752 6.656 4.032 13.632 4.032 20.544v0 322.24c0 29.632-24.064 53.696-53.696 53.696s-53.696-24.064-53.696-53.696v-192.576l-445.376 445.376c-10.496 10.496-24.256 15.744-37.952 15.744s-27.52-5.248-37.952-15.744c-20.992-20.992-20.992-54.976 0-75.968z" />
<glyph unicode="&#xea0b;" glyph-name="minus" d="M0 544v-192c0-17.672 14.328-32 32-32h960c17.672 0 32 14.328 32 32v192c0 17.672-14.328 32-32 32h-960c-17.672 0-32-14.328-32-32z" />
<glyph unicode="&#xed5e;" glyph-name="minus3" d="M64 512h896v-128h-896v128z" />
<glyph unicode="&#xed71;" glyph-name="checkmark3" d="M896 800l-544-544-224 224-96-96 320-320 640 640z" />
<glyph unicode="&#xee78;" glyph-name="circle2" d="M0 448c0 282.77 229.23 512 512 512s512-229.23 512-512c0-282.77-229.23-512-512-512s-512 229.23-512 512z" />
</font>
</defs>
</svg>
